<svg width="130" height="50" viewBox="0 0 130 50" fill="none" xmlns="http://www.w3.org/2000/svg">
<rect width="50" height="50" rx="25" fill="url(#paint0_linear_37_1506)"/>
<path d="M25.2148 26.6367H20.7734V24.3047H25.2148C25.9883 24.3047 26.6133 24.1797 27.0898 23.9297C27.5664 23.6797 27.9141 23.3359 28.1328 22.8984C28.3594 22.4531 28.4727 21.9453 28.4727 21.375C28.4727 20.8359 28.3594 20.332 28.1328 19.8633C27.9141 19.3867 27.5664 19.0039 27.0898 18.7148C26.6133 18.4258 25.9883 18.2812 25.2148 18.2812H21.6758V33H18.7344V15.9375H25.2148C26.5352 15.9375 27.6562 16.1719 28.5781 16.6406C29.5078 17.1016 30.2148 17.7422 30.6992 18.5625C31.1836 19.375 31.4258 20.3047 31.4258 21.3516C31.4258 22.4531 31.1836 23.3984 30.6992 24.1875C30.2148 24.9766 29.5078 25.582 28.5781 26.0039C27.6562 26.4258 26.5352 26.6367 25.2148 26.6367Z" fill="white"/>
<path d="M61.8457 26.6973H58.1445V24.7539H61.8457C62.4902 24.7539 63.0111 24.6497 63.4082 24.4414C63.8053 24.2331 64.0951 23.9466 64.2773 23.582C64.4661 23.2109 64.5605 22.7878 64.5605 22.3125C64.5605 21.8633 64.4661 21.4434 64.2773 21.0527C64.0951 20.6556 63.8053 20.3366 63.4082 20.0957C63.0111 19.8548 62.4902 19.7344 61.8457 19.7344H58.8965V32H56.4453V17.7812H61.8457C62.946 17.7812 63.8802 17.9766 64.6484 18.3672C65.4232 18.7513 66.0124 19.2852 66.416 19.9688C66.8197 20.6458 67.0215 21.4206 67.0215 22.293C67.0215 23.2109 66.8197 23.9987 66.416 24.6562C66.0124 25.3138 65.4232 25.8184 64.6484 26.1699C63.8802 26.5215 62.946 26.6973 61.8457 26.6973ZM74.8242 29.8809V24.8418C74.8242 24.4642 74.7559 24.1387 74.6191 23.8652C74.4824 23.5918 74.2741 23.3802 73.9941 23.2305C73.7207 23.0807 73.3757 23.0059 72.959 23.0059C72.5749 23.0059 72.2428 23.071 71.9629 23.2012C71.6829 23.3314 71.4648 23.5072 71.3086 23.7285C71.1523 23.9499 71.0742 24.2005 71.0742 24.4805H68.7305C68.7305 24.0638 68.8314 23.6602 69.0332 23.2695C69.235 22.8789 69.528 22.5306 69.9121 22.2246C70.2962 21.9186 70.7552 21.6777 71.2891 21.502C71.8229 21.3262 72.4219 21.2383 73.0859 21.2383C73.8802 21.2383 74.5833 21.3717 75.1953 21.6387C75.8138 21.9056 76.2988 22.3092 76.6504 22.8496C77.0085 23.3835 77.1875 24.054 77.1875 24.8613V29.5586C77.1875 30.0404 77.2201 30.4733 77.2852 30.8574C77.3568 31.235 77.4577 31.5638 77.5879 31.8438V32H75.1758C75.0651 31.7461 74.9772 31.4238 74.9121 31.0332C74.8535 30.6361 74.8242 30.252 74.8242 29.8809ZM75.166 25.5742L75.1855 27.0293H73.4961C73.0599 27.0293 72.6758 27.0716 72.3438 27.1562C72.0117 27.2344 71.735 27.3516 71.5137 27.5078C71.2923 27.6641 71.1263 27.8529 71.0156 28.0742C70.9049 28.2956 70.8496 28.5462 70.8496 28.8262C70.8496 29.1061 70.9147 29.3633 71.0449 29.5977C71.1751 29.8255 71.3639 30.0046 71.6113 30.1348C71.8652 30.265 72.1712 30.3301 72.5293 30.3301C73.0111 30.3301 73.431 30.2324 73.7891 30.0371C74.1536 29.8353 74.4401 29.5911 74.6484 29.3047C74.8568 29.0117 74.9674 28.735 74.9805 28.4746L75.7422 29.5195C75.6641 29.7865 75.5306 30.0729 75.3418 30.3789C75.153 30.6849 74.9056 30.9779 74.5996 31.2578C74.3001 31.5312 73.9388 31.7559 73.5156 31.9316C73.099 32.1074 72.6172 32.1953 72.0703 32.1953C71.3802 32.1953 70.765 32.0586 70.2246 31.7852C69.6842 31.5052 69.2611 31.1309 68.9551 30.6621C68.6491 30.1868 68.4961 29.6497 68.4961 29.0508C68.4961 28.4909 68.6003 27.9961 68.8086 27.5664C69.0234 27.1302 69.3359 26.7656 69.7461 26.4727C70.1628 26.1797 70.6706 25.9583 71.2695 25.8086C71.8685 25.6523 72.5521 25.5742 73.3203 25.5742H75.166ZM86.0938 29.8125V17H88.457V32H86.3184L86.0938 29.8125ZM79.2188 26.834V26.6289C79.2188 25.8281 79.3132 25.099 79.502 24.4414C79.6908 23.7773 79.9642 23.2077 80.3223 22.7324C80.6803 22.2507 81.1165 21.8828 81.6309 21.6289C82.1452 21.3685 82.7246 21.2383 83.3691 21.2383C84.0072 21.2383 84.5671 21.362 85.0488 21.6094C85.5306 21.8568 85.9408 22.2116 86.2793 22.6738C86.6178 23.1296 86.888 23.6764 87.0898 24.3145C87.2917 24.946 87.4349 25.6491 87.5195 26.4238V27.0781C87.4349 27.8333 87.2917 28.5234 87.0898 29.1484C86.888 29.7734 86.6178 30.3138 86.2793 30.7695C85.9408 31.2253 85.5273 31.5768 85.0391 31.8242C84.5573 32.0716 83.9941 32.1953 83.3496 32.1953C82.7116 32.1953 82.1354 32.0618 81.6211 31.7949C81.1133 31.528 80.6803 31.1536 80.3223 30.6719C79.9642 30.1901 79.6908 29.6237 79.502 28.9727C79.3132 28.3151 79.2188 27.6022 79.2188 26.834ZM81.5723 26.6289V26.834C81.5723 27.3158 81.6146 27.765 81.6992 28.1816C81.7904 28.5983 81.9303 28.9661 82.1191 29.2852C82.3079 29.5977 82.5521 29.8451 82.8516 30.0273C83.1576 30.2031 83.5221 30.291 83.9453 30.291C84.4792 30.291 84.9186 30.1738 85.2637 29.9395C85.6087 29.7051 85.8789 29.3893 86.0742 28.9922C86.276 28.5885 86.4128 28.1393 86.4844 27.6445V25.877C86.4453 25.4928 86.3639 25.1348 86.2402 24.8027C86.123 24.4707 85.9635 24.181 85.7617 23.9336C85.5599 23.6797 85.3092 23.4844 85.0098 23.3477C84.7168 23.2044 84.3685 23.1328 83.9648 23.1328C83.5352 23.1328 83.1706 23.224 82.8711 23.4062C82.5716 23.5885 82.3242 23.8392 82.1289 24.1582C81.9401 24.4772 81.8001 24.8483 81.709 25.2715C81.6178 25.6947 81.5723 26.1471 81.5723 26.6289ZM93.4375 21.4336V32H91.0742V21.4336H93.4375ZM90.918 18.6602C90.918 18.3021 91.0352 18.0059 91.2695 17.7715C91.5104 17.5306 91.8424 17.4102 92.2656 17.4102C92.6823 17.4102 93.0111 17.5306 93.252 17.7715C93.4928 18.0059 93.6133 18.3021 93.6133 18.6602C93.6133 19.0117 93.4928 19.3047 93.252 19.5391C93.0111 19.7734 92.6823 19.8906 92.2656 19.8906C91.8424 19.8906 91.5104 19.7734 91.2695 19.5391C91.0352 19.3047 90.918 19.0117 90.918 18.6602ZM101.65 26.6973H97.9492V24.7539H101.65C102.295 24.7539 102.816 24.6497 103.213 24.4414C103.61 24.2331 103.9 23.9466 104.082 23.582C104.271 23.2109 104.365 22.7878 104.365 22.3125C104.365 21.8633 104.271 21.4434 104.082 21.0527C103.9 20.6556 103.61 20.3366 103.213 20.0957C102.816 19.8548 102.295 19.7344 101.65 19.7344H98.7012V32H96.25V17.7812H101.65C102.751 17.7812 103.685 17.9766 104.453 18.3672C105.228 18.7513 105.817 19.2852 106.221 19.9688C106.624 20.6458 106.826 21.4206 106.826 22.293C106.826 23.2109 106.624 23.9987 106.221 24.6562C105.817 25.3138 105.228 25.8184 104.453 26.1699C103.685 26.5215 102.751 26.6973 101.65 26.6973ZM108.203 26.834V26.6094C108.203 25.8477 108.314 25.1413 108.535 24.4902C108.757 23.8327 109.076 23.263 109.492 22.7812C109.915 22.293 110.43 21.9154 111.035 21.6484C111.647 21.375 112.337 21.2383 113.105 21.2383C113.88 21.2383 114.57 21.375 115.176 21.6484C115.788 21.9154 116.305 22.293 116.729 22.7812C117.152 23.263 117.474 23.8327 117.695 24.4902C117.917 25.1413 118.027 25.8477 118.027 26.6094V26.834C118.027 27.5957 117.917 28.3021 117.695 28.9531C117.474 29.6042 117.152 30.1738 116.729 30.6621C116.305 31.1439 115.791 31.5215 115.186 31.7949C114.58 32.0618 113.893 32.1953 113.125 32.1953C112.35 32.1953 111.657 32.0618 111.045 31.7949C110.439 31.5215 109.925 31.1439 109.502 30.6621C109.079 30.1738 108.757 29.6042 108.535 28.9531C108.314 28.3021 108.203 27.5957 108.203 26.834ZM110.557 26.6094V26.834C110.557 27.3092 110.605 27.7585 110.703 28.1816C110.801 28.6048 110.954 28.9759 111.162 29.2949C111.37 29.6139 111.637 29.8646 111.963 30.0469C112.288 30.2292 112.676 30.3203 113.125 30.3203C113.561 30.3203 113.939 30.2292 114.258 30.0469C114.583 29.8646 114.85 29.6139 115.059 29.2949C115.267 28.9759 115.42 28.6048 115.518 28.1816C115.622 27.7585 115.674 27.3092 115.674 26.834V26.6094C115.674 26.1406 115.622 25.6979 115.518 25.2812C115.42 24.8581 115.264 24.4837 115.049 24.1582C114.84 23.8327 114.574 23.5788 114.248 23.3965C113.929 23.2077 113.548 23.1133 113.105 23.1133C112.663 23.1133 112.279 23.2077 111.953 23.3965C111.634 23.5788 111.37 23.8327 111.162 24.1582C110.954 24.4837 110.801 24.8581 110.703 25.2812C110.605 25.6979 110.557 26.1406 110.557 26.6094ZM125.928 29.1387C125.928 28.9043 125.869 28.6927 125.752 28.5039C125.635 28.3086 125.41 28.1328 125.078 27.9766C124.753 27.8203 124.271 27.6771 123.633 27.5469C123.073 27.4232 122.559 27.2767 122.09 27.1074C121.628 26.9316 121.23 26.7201 120.898 26.4727C120.566 26.2253 120.309 25.9323 120.127 25.5938C119.945 25.2552 119.854 24.8646 119.854 24.4219C119.854 23.9922 119.948 23.5853 120.137 23.2012C120.326 22.8171 120.596 22.4785 120.947 22.1855C121.299 21.8926 121.725 21.6615 122.227 21.4922C122.734 21.3229 123.301 21.2383 123.926 21.2383C124.811 21.2383 125.57 21.388 126.201 21.6875C126.839 21.9805 127.327 22.3809 127.666 22.8887C128.005 23.39 128.174 23.9564 128.174 24.5879H125.82C125.82 24.3079 125.749 24.0475 125.605 23.8066C125.469 23.5592 125.26 23.3607 124.98 23.2109C124.701 23.0547 124.349 22.9766 123.926 22.9766C123.522 22.9766 123.187 23.0417 122.92 23.1719C122.66 23.2956 122.464 23.4583 122.334 23.6602C122.21 23.862 122.148 24.0833 122.148 24.3242C122.148 24.5 122.181 24.6595 122.246 24.8027C122.318 24.9395 122.435 25.0664 122.598 25.1836C122.76 25.2943 122.982 25.3984 123.262 25.4961C123.548 25.5938 123.906 25.6882 124.336 25.7793C125.143 25.9486 125.837 26.1667 126.416 26.4336C127.002 26.694 127.451 27.0326 127.764 27.4492C128.076 27.8594 128.232 28.3802 128.232 29.0117C128.232 29.4805 128.132 29.9102 127.93 30.3008C127.734 30.6849 127.448 31.0202 127.07 31.3066C126.693 31.5866 126.24 31.8047 125.713 31.9609C125.192 32.1172 124.606 32.1953 123.955 32.1953C122.998 32.1953 122.188 32.026 121.523 31.6875C120.859 31.3424 120.355 30.903 120.01 30.3691C119.671 29.8288 119.502 29.2689 119.502 28.6895H121.777C121.803 29.1257 121.924 29.474 122.139 29.7344C122.36 29.9883 122.633 30.1738 122.959 30.291C123.291 30.4017 123.633 30.457 123.984 30.457C124.408 30.457 124.762 30.4017 125.049 30.291C125.335 30.1738 125.553 30.0176 125.703 29.8223C125.853 29.6204 125.928 29.3926 125.928 29.1387Z" fill="url(#paint1_linear_37_1506)"/>
<defs>
<linearGradient id="paint0_linear_37_1506" x1="0" y1="25" x2="50" y2="25" gradientUnits="userSpaceOnUse">
<stop stop-color="#4C3BCF"/>
<stop offset="1" stop-color="#3572EF"/>
</linearGradient>
<linearGradient id="paint1_linear_37_1506" x1="55" y1="25" x2="130" y2="25" gradientUnits="userSpaceOnUse">
<stop stop-color="#3572EF"/>
<stop offset="1" stop-color="#4C3BCF"/>
</linearGradient>
</defs>
</svg>
